PathFileType	4	(X/Y/Z)	C:\Users\dbl\Desktop\20210112\20210112\bx_n_0_901.trc
DataRate	CameraRate	NumFrames	NumMarkers	Units	OrigDataRate	OrigDataStartFrame	OrigNumFrames
50.00	50.00	       6	43	mm	50.00	324	       370
Frame#	Time	Top.Head			R.Acromium			L.Acromium			Sternum			R.ASIS			L.ASIS			V.Sacral			R.Thigh.Upper			R.Thigh.Front			R.Thigh.Rear			R.Knee.Lat			R.Knee.Med			R.Shank.Upper			R.Shank.Front			R.Shank.Rear			R.Ankle.Lat			R.Midfoot.Lat			R.Toe.Lat			R.Toe.Tip			R.Toe.Med			R.Ankle.Med			R.Midfoot.Sup			R.Heel			L.Thigh.Upper			L.Thigh.Front			L.Thigh.Rear			L.Knee.Lat			L.Knee.Med			L.Shank.Upper			L.Shank.Front			L.Shank.Rear			L.Ankle.Lat			L.Midfoot.Lat			L.Toe.Lat			L.Toe.Tip			L.Toe.Med			L.Ankle.Med			L.Midfoot.Sup			L.Heel			origin1 front left			origin2 front right			origin 3 back right			origin 4 back leftt			
		X1	Y1	Z1	X2	Y2	Z2	X3	Y3	Z3	X4	Y4	Z4	X5	Y5	Z5	X6	Y6	Z6	X7	Y7	Z7	X8	Y8	Z8	X9	Y9	Z9	X10	Y10	Z10	X11	Y11	Z11	X12	Y12	Z12	X13	Y13	Z13	X14	Y14	Z14	X15	Y15	Z15	X16	Y16	Z16	X17	Y17	Z17	X18	Y18	Z18	X19	Y19	Z19	X20	Y20	Z20	X21	Y21	Z21	X22	Y22	Z22	X23	Y23	Z23	X24	Y24	Z24	X25	Y25	Z25	X26	Y26	Z26	X27	Y27	Z27	X28	Y28	Z28	X29	Y29	Z29	X30	Y30	Z30	X31	Y31	Z31	X32	Y32	Z32	X33	Y33	Z33	X34	Y34	Z34	X35	Y35	Z35	X36	Y36	Z36	X37	Y37	Z37	X38	Y38	Z38	X39	Y39	Z39	X40	Y40	Z40	X41	Y41	Z41	X42	Y42	Z42	X43	Y43	Z43	

324	6.460	-752.06104	113.06990	1856.17749	-716.07477	-69.76231	1539.61584	-724.34338	294.35992	1538.63550	-607.53619	115.17768	1363.61023	-622.68329	1.17004	1057.84070	-621.55396	247.69553	1067.13550	-823.93945	108.50462	1062.53625	-687.05548	-67.54440	877.21411	-608.76440	-1.05705	809.34052	-703.12402	-56.27267	761.01471	-718.14362	-32.04329	618.10968	-700.70734	76.49575	574.49438	-723.40399	-30.14347	570.91986	-672.60980	16.76857	522.21326	-764.93439	-42.44070	489.48111	-759.57855	-21.64552	207.70367	-648.04871	-67.81269	162.03604	-606.22485	-72.22254	158.06450	-549.69501	-25.25120	163.96309	-600.90228	26.41090	169.42569	-675.37097	51.90475	161.22173	-719.16974	68.13084	217.01602	-793.39819	37.36401	173.77121	-700.75342	293.51239	874.86304	-605.96338	226.16060	795.45776	-706.53412	278.11206	744.50592	-741.71191	262.14810	641.21082	-705.98822	150.41490	576.03955	-737.38629	255.08412	575.56763	-685.80756	209.96642	535.80066	-773.87085	266.63873	500.26752	-765.72339	230.64052	204.45076	-652.25348	291.68298	156.72859	-615.17102	297.45578	158.44162	-553.46674	242.79263	166.02371	-590.11859	208.43163	174.23166	-714.43933	153.56952	219.04466	-675.93268	168.20630	160.59981	-796.51135	182.36893	184.12170	-528.01440	303.93307	146.56372	-517.83875	-72.91405	143.15791	-875.88959	-78.76189	141.36879	-882.53009	296.12643	144.71501	
325	6.480	-754.08984	112.83878	1855.97644	-717.54529	-70.22131	1539.53699	-725.58405	294.08047	1538.37354	-607.99286	114.66766	1363.89099	-622.00110	0.59282	1057.86060	-620.77771	247.15558	1067.17700	-823.16205	107.99179	1062.30420	-686.17194	-67.95985	877.09521	-608.04175	-1.36739	809.22931	-702.33331	-56.63492	760.96143	-717.45880	-32.39616	618.00244	-700.40515	76.16146	574.41815	-722.83716	-30.49567	570.79773	-672.13684	16.65172	522.07831	-764.48047	-42.77636	489.38696	-759.51141	-21.74008	207.66634	-648.00244	-67.82439	162.04216	-606.19391	-72.16167	158.06416	-549.69019	-25.22025	164.03769	-600.91943	26.46025	169.39621	-675.38989	51.92414	161.21443	-719.19312	68.09293	216.99164	-793.42456	37.27440	173.88087	-699.88995	293.20181	874.85376	-605.20093	225.65182	795.51776	-705.75952	277.77164	744.61395	-741.10278	261.79068	641.34015	-705.12756	150.15735	576.05975	-736.70135	254.78194	575.68414	-685.28284	209.55177	535.74542	-773.31848	266.28137	500.35513	-765.67157	230.55536	204.51114	-652.22528	291.61685	156.83994	-615.19519	297.37271	158.47345	-553.48157	242.79150	166.04056	-590.07831	208.36052	174.19096	-714.35413	153.45518	219.01912	-675.81647	168.12833	160.61922	-796.42950	182.34073	184.08801	-528.06610	304.00180	146.57507	-517.82904	-72.91637	143.15631	-875.90247	-78.80114	141.37410	-882.50763	296.11926	144.70378	
326	6.500	-756.05127	112.63960	1855.74072	-718.96362	-70.64455	1539.44312	-726.81317	293.77060	1538.07813	-608.49176	114.18649	1364.17346	-621.34967	-0.00774	1057.87500	-620.06348	246.56122	1067.23535	-822.47528	107.48018	1062.05322	-685.30072	-68.37402	876.97986	-607.34363	-1.58773	809.12244	-701.54675	-56.94794	760.87402	-716.83185	-32.78155	617.94360	-700.15375	75.86964	574.31317	-722.21722	-30.78683	570.64532	-671.66003	16.52357	521.94232	-764.00397	-43.12856	489.26953	-759.42023	-21.84815	207.63744	-648.00714	-67.84492	161.97316	-606.14771	-72.09336	158.10457	-549.67712	-25.13730	164.11182	-600.94763	26.53738	169.39035	-675.38403	51.93665	161.20621	-719.23138	68.07278	216.96223	-793.46735	37.22156	173.94307	-698.97296	292.91583	874.84027	-604.43152	225.11543	795.50775	-704.94379	277.39267	744.68903	-740.39313	261.42249	641.45270	-704.41394	149.84862	576.16888	-736.03516	254.40884	575.72565	-684.74719	209.17628	535.70386	-772.75421	265.92508	500.43848	-765.65637	230.46132	204.60001	-652.20996	291.48578	156.92792	-615.23126	297.29456	158.49648	-553.48895	242.78368	166.06490	-590.03522	208.31070	174.18004	-714.29468	153.35245	218.95386	-675.74402	168.04256	160.61397	-796.37225	182.32297	184.05666	-528.12878	304.05981	146.56377	-517.81720	-72.91074	143.15701	-875.93628	-78.84408	141.39256	-882.48090	296.12292	144.70177	
327	6.520	-757.96149	112.46597	1855.50110	-720.36432	-71.00288	1539.38159	-728.02759	293.42969	1537.74622	-609.01489	113.74268	1364.44714	-620.71356	-0.56847	1057.91846	-619.37012	245.97447	1067.33618	-821.87329	106.99980	1061.82227	-684.47296	-68.77044	876.87286	-606.63617	-1.73072	809.02246	-700.80511	-57.18973	760.71735	-716.24756	-33.16908	617.92719	-699.87500	75.57305	574.22223	-721.54889	-31.02976	570.52643	-671.16785	16.35659	521.81329	-763.47845	-43.48578	489.16431	-759.32977	-21.95348	207.61708	-648.02985	-67.85829	161.89081	-606.11560	-72.04603	158.17824	-549.64496	-25.03000	164.17952	-600.96478	26.60680	169.39357	-675.36768	51.93649	161.19014	-719.26520	68.07485	216.93767	-793.50415	37.18435	173.93361	-698.06451	292.64053	874.86578	-603.71338	224.55688	795.41339	-704.10748	277.00290	744.68866	-739.58173	261.03888	641.50720	-703.89178	149.42273	576.33087	-735.42212	253.96588	575.71631	-684.18561	208.82404	535.66321	-772.18298	265.55612	500.49811	-765.65295	230.35175	204.68823	-652.20374	291.32037	156.97743	-615.25476	297.21323	158.50331	-553.47943	242.77283	166.08459	-589.97705	208.26678	174.17570	-714.28204	153.22189	218.85887	-675.70447	167.94537	160.51248	-796.36151	182.31404	184.07718	-528.17029	304.08942	146.55495	-517.80603	-72.90359	143.16664	-875.97321	-78.87024	141.41470	-882.47339	296.13101	144.69987	
328	6.540	-759.80353	112.30538	1855.29065	-721.75830	-71.32819	1539.36389	-729.19019	293.06461	1537.40466	-609.52246	113.31129	1364.71191	-620.13251	-1.08419	1057.98352	-618.67651	245.43134	1067.47095	-821.32275	106.55505	1061.61792	-683.71149	-69.15556	876.76508	-605.91986	-1.85659	808.92328	-700.11584	-57.38510	760.51404	-715.66260	-33.48542	617.87933	-699.50909	75.25188	574.16663	-720.91217	-31.28170	570.46967	-670.69751	16.16311	521.66797	-762.91425	-43.83046	489.10263	-759.25732	-22.03354	207.60248	-648.03021	-67.85307	161.88065	-606.11890	-72.03488	158.24763	-549.59546	-24.95593	164.26123	-600.93878	26.63574	169.40366	-675.37250	51.93677	161.16199	-719.27466	68.08327	216.92621	-793.53217	37.11304	173.91339	-697.25079	292.31705	874.91193	-603.06647	224.00166	795.28253	-703.28845	276.65109	744.65295	-738.71906	260.66025	641.52405	-703.45538	148.92612	576.43604	-734.82410	253.52635	575.72913	-683.59174	208.47678	535.61639	-771.60425	265.18234	500.52872	-765.63446	230.23326	204.75368	-652.20782	291.16858	156.97504	-615.24860	297.13525	158.49754	-553.45764	242.75662	166.09908	-589.89246	208.21336	174.17844	-714.30597	153.06190	218.75194	-675.66809	167.81825	160.28375	-796.38464	182.31024	184.14590	-528.18036	304.10336	146.56281	-517.79877	-72.89759	143.19170	-875.99805	-78.86681	141.43297	-882.49359	296.13455	144.68312	
329	6.560	-761.56763	112.14089	1855.12561	-723.11285	-71.68263	1539.35669	-730.26526	292.67792	1537.09033	-609.96625	112.85289	1364.97302	-619.62836	-1.61831	1058.02539	-618.00409	244.92654	1067.60168	-820.77588	106.13034	1061.43530	-683.03448	-69.53981	876.64258	-605.22723	-2.01366	808.83826	-699.41907	-57.61236	760.34204	-715.05316	-33.69073	617.74658	-699.05560	74.95300	574.15155	-720.35217	-31.59898	570.45831	-670.30707	16.00915	521.49103	-762.34937	-44.15089	489.07538	-759.19989	-22.08123	207.59294	-648.01111	-67.82859	161.96118	-606.14362	-72.04006	158.27722	-549.53259	-24.94429	164.37297	-600.87384	26.63151	169.40608	-675.40601	51.95667	161.13118	-719.23975	68.08193	216.92444	-793.58496	37.00866	173.96213	-696.58374	291.85822	874.90552	-602.46686	223.50761	795.18665	-702.51874	276.33337	744.64355	-737.90509	260.30261	641.55994	-702.94855	148.50041	576.42444	-734.20435	253.17723	575.82263	-683.00067	208.14229	535.57355	-771.05231	264.85873	500.56015	-765.59509	230.13075	204.79652	-652.22150	291.05609	156.94098	-615.22009	297.07236	158.48479	-553.43622	242.73959	166.10458	-589.78583	208.14812	174.19618	-714.32330	152.90839	218.64783	-675.63849	167.67487	159.96783	-796.40405	182.30634	184.21048	-528.17834	304.11615	146.57520	-517.80341	-72.88663	143.21619	-876.00415	-78.83849	141.43542	-882.52435	296.13654	144.66438	
